<?xml version="1.0" encoding="utf-8"?>
<!-- Generator: Adobe Illustrator 16.0.0, SVG Export Plug-In . SVG Version: 6.00 Build 0)  -->
<!DOCTYPE svg PUBLIC "-//W3C//DTD SVG 1.1//EN" "http://www.w3.org/Graphics/SVG/1.1/DTD/svg11.dtd">
<svg version="1.1" xmlns="http://www.w3.org/2000/svg" xmlns:xlink="http://www.w3.org/1999/xlink" x="0px" y="0px"
	 width="423.54px" height="550.108px" viewBox="0 0 423.54 550.108" enable-background="new 0 0 423.54 550.108"
	 xml:space="preserve">
<g id="Layer_1">
	<g>
		<polygon fill="#6A9FD5" points="121.533,381.416 293.533,381.416 286.2,436.083 276.866,469.416 251.533,513.375 161.533,513.375 
			140.866,486.33 129.533,447.396 121.533,404.75 		"/>
		<g>
			<g>
				<path fill="#555A6F" d="M304.721,363.12h-4.106c-0.246-7.379-0.764-14.728-1.562-21.945l-0.694-6.274h-182.47l-0.694,6.274
					c-1.148,10.383-1.73,21.038-1.73,31.669c0,30.65,3.66,59.538,10.583,83.538c3.605,12.495,8.11,23.808,13.394,33.624
					c5.542,10.299,12,19.059,19.192,26.038l2.051,1.989h96.879l2.051-1.989c7.193-6.979,13.65-15.739,19.192-26.038
					c4.503-8.368,8.439-17.827,11.736-28.174h16.179c27.215,0,49.355-22.141,49.355-49.356S331.936,363.12,304.721,363.12z
					 M249.77,503.935h-85.293c-23.494-24.609-36.914-72.125-36.914-131.091c0-7.983,0.345-15.978,1.026-23.845h157.068
					c0.683,7.869,1.026,15.863,1.026,23.845C286.684,431.81,273.264,479.326,249.77,503.935z M299.349,405.415h5.372
					c3.894,0,7.061,3.167,7.061,7.061s-3.167,7.061-7.061,7.061h-6.952C298.391,414.918,298.917,410.207,299.349,405.415z
					 M304.721,447.733h-12.222c1.116-4.556,2.124-9.263,3.021-14.098h9.201c11.667,0,21.159-9.492,21.159-21.159
					c0-11.667-9.492-21.159-21.159-21.159h-4.393c0.23-4.646,0.372-9.349,0.427-14.099h3.966c19.441,0,35.258,15.816,35.258,35.257
					S324.162,447.733,304.721,447.733z"/>
			</g>
		</g>
	</g>
</g>
<g id="Layer_2">
</g>
</svg>
