<?xml version="1.0" encoding="utf-8"?>
<!-- Generator: Adobe Illustrator 16.0.0, SVG Export Plug-In . SVG Version: 6.00 Build 0)  -->
<!DOCTYPE svg PUBLIC "-//W3C//DTD SVG 1.1//EN" "http://www.w3.org/Graphics/SVG/1.1/DTD/svg11.dtd">
<svg version="1.1" xmlns="http://www.w3.org/2000/svg" xmlns:xlink="http://www.w3.org/1999/xlink" x="0px" y="0px"
	 width="423.54px" height="550.108px" viewBox="0 0 423.54 550.108" enable-background="new 0 0 423.54 550.108"
	 xml:space="preserve">
<g id="Layer_1">
	<g>
		<rect x="134.757" y="229.976" fill="#6A9FD5" width="157.912" height="274.811"/>
		<path fill="#555A6F" d="M272.37,148.36l-11.969-17.1c-9.377-13.353-15.012-28.97-16.32-45.234c4.414-0.007,7.986-3.587,7.986-8
			v-24c-0.01-8.833-7.166-15.99-16-16h-48.297c-8.832,0.011-15.99,7.168-16,16v24c0.002,4.296,3.398,7.822,7.691,7.984
			c-1.307,16.27-6.941,31.894-16.322,45.252l-11.969,17.1c-17.877,25.457-27.448,55.817-27.401,86.924V484.01
			c0,18.777,15.223,34,34,34c3.158,0,6.303-0.44,9.34-1.309l19.477-5.564c15.623,8.847,34.742,8.847,50.365,0l19.479,5.564
			c3.066,0.881,6.242,1.329,9.434,1.332c18.738-0.078,33.893-15.284,33.906-34.023V235.286
			C299.817,204.178,290.247,173.817,272.37,148.36z M139.771,238.026h144v128h-144V238.026z M187.771,54.026h48.299v16h-48.299
			V54.026z M164.278,157.536l11.969-17.1c11.262-16.041,17.92-34.856,19.252-54.41h32.541c1.332,19.554,7.99,38.371,19.254,54.412
			l11.969,17.1c13.387,19.074,21.602,41.293,23.842,64.488h-142.67C142.675,198.83,150.89,176.61,164.278,157.536z M276.608,498.379
			c-4.498,3.425-10.354,4.515-15.783,2.938l-22.855-6.531c-2.256-0.645-4.684-0.266-6.635,1.036c-11.84,7.922-27.287,7.922-39.125,0
			c-1.953-1.302-4.379-1.681-6.637-1.036l-22.855,6.531c-9.559,2.732-19.521-2.802-22.254-12.359
			c-0.461-1.609-0.693-3.275-0.693-4.948V382.026h144V484.01C283.794,489.664,281.138,494.994,276.608,498.379z"/>
		<path fill="#FFFFFF" d="M167.007,345.976c0,2.761-2.799,5-6.25,5l0,0c-3.453,0-6.25-2.239-6.25-5v-90c0-2.761,2.797-5,6.25-5l0,0
			c3.451,0,6.25,2.239,6.25,5V345.976z"/>
	</g>
</g>
<g id="Layer_2">
</g>
</svg>
