<?xml version="1.0" encoding="utf-8"?>
<!-- Generator: Adobe Illustrator 16.0.0, SVG Export Plug-In . SVG Version: 6.00 Build 0)  -->
<!DOCTYPE svg PUBLIC "-//W3C//DTD SVG 1.1//EN" "http://www.w3.org/Graphics/SVG/1.1/DTD/svg11.dtd">
<svg version="1.1" id="Layer_1" xmlns="http://www.w3.org/2000/svg" xmlns:xlink="http://www.w3.org/1999/xlink" x="0px" y="0px"
	 width="423.54px" height="550.109px" viewBox="0 0 423.54 550.109" enable-background="new 0 0 423.54 550.109"
	 xml:space="preserve">
<path fill="#555A6F" d="M282.086,512.63v-5.41h-135.6l-20.864-292.095h172.292l-21.223,297.119L282.086,512.63v-5.41V512.63
	l5.398,0.381l21.635-302.909c0.107-1.501-0.412-2.969-1.438-4.07c-1.025-1.102-2.454-1.721-3.958-1.721H119.813
	c-1.504,0-2.932,0.619-3.956,1.721c-1.027,1.101-1.544,2.565-1.438,4.069l21.638,302.91c0.2,2.832,2.556,5.023,5.395,5.023h140.636
	c2.838,0,5.193-2.191,5.397-5.023L282.086,512.63z"/>
<g>
	<path fill="#555A6F" d="M255.27,366.673h-87c-3.038,0-5.5-2.463-5.5-5.5s2.462-5.5,5.5-5.5h87c3.037,0,5.5,2.463,5.5,5.5
		S258.307,366.673,255.27,366.673z"/>
	<path fill="#555A6F" d="M211.77,410.173c-3.038,0-5.5-2.463-5.5-5.5v-87c0-3.037,2.462-5.5,5.5-5.5c3.037,0,5.5,2.463,5.5,5.5v87
		C217.27,407.71,214.807,410.173,211.77,410.173z"/>
</g>
</svg>
