<?xml version="1.0" encoding="utf-8"?>
<!-- Generator: Adobe Illustrator 16.0.0, SVG Export Plug-In . SVG Version: 6.00 Build 0)  -->
<!DOCTYPE svg PUBLIC "-//W3C//DTD SVG 1.1//EN" "http://www.w3.org/Graphics/SVG/1.1/DTD/svg11.dtd">
<svg version="1.1" xmlns="http://www.w3.org/2000/svg" xmlns:xlink="http://www.w3.org/1999/xlink" x="0px" y="0px"
	 width="423.54px" height="550.108px" viewBox="0 0 423.54 550.108" enable-background="new 0 0 423.54 550.108"
	 xml:space="preserve">
<g id="Layer_1">
	<g>
		<path fill="#6A9FD5" d="M282.087,512.63H141.451l-21.638-302.909h183.911L282.087,512.63z"/>
		<path fill="#555A6F" d="M282.087,512.63v-5.41h-135.6l-20.864-292.095h172.292l-21.223,297.118L282.087,512.63v-5.41V512.63
			l5.398,0.381l21.634-302.909c0.108-1.501-0.411-2.969-1.437-4.07c-1.026-1.102-2.454-1.721-3.958-1.721H119.813
			c-1.504,0-2.932,0.619-3.956,1.721c-1.027,1.101-1.544,2.565-1.438,4.069l21.638,302.91c0.2,2.832,2.556,5.023,5.395,5.023
			h140.636c2.838,0,5.193-2.191,5.398-5.023L282.087,512.63z"/>
		<path fill="#E0E0DF" d="M139.849,490.992l1.603,21.638h140.636l1.603-21.638H139.849z"/>
		<path fill="#555A6F" d="M139.849,490.992l-5.396,0.399l1.606,21.638c0.207,2.829,2.553,5.004,5.392,5.004h140.64
			c2.837,0,5.184-2.175,5.395-5.004l1.603-21.638c0.108-1.501-0.405-2.977-1.434-4.079c-1.023-1.105-2.454-1.728-3.962-1.728
			H139.849c-1.505,0-2.938,0.622-3.962,1.728c-1.028,1.102-1.542,2.575-1.434,4.079L139.849,490.992v5.407h138.02l-0.802,10.817
			H146.475l-1.231-16.628L139.849,490.992v5.407V490.992z"/>
		<path fill="#FFFFFF" d="M124.623,274.628h174.295l4.807-64.908H119.813L124.623,274.628z"/>
		<g>
			<path fill="#555A6F" d="M124.623,274.628v5.407h174.295c2.839,0,5.185-2.176,5.395-5.008l4.807-64.907
				c0.112-1.504-0.404-2.978-1.43-4.083c-1.024-1.105-2.458-1.727-3.965-1.727H119.813c-1.504,0-2.938,0.622-3.962,1.727
				c-1.024,1.102-1.541,2.579-1.43,4.083l4.807,64.907c0.21,2.832,2.557,5.008,5.395,5.008V274.628l5.392-0.402l-4.377-59.101
				h172.262l-4.005,54.096H124.623V274.628l5.392-0.402L124.623,274.628z"/>
		</g>
		<path fill="#FFFFFF" d="M141.46,237.1l5.411,86.545c0.186,2.984,2.754,5.25,5.735,5.063c2.983-0.189,5.249-2.754,5.063-5.735
			l-5.41-86.545c-0.186-2.984-2.754-5.25-5.734-5.063C143.54,231.55,141.274,234.119,141.46,237.1"/>
	</g>
</g>
<g id="Layer_2">
</g>
</svg>
